PathFileType        4      (X/Y/Z)      C:\Users\pc\Desktop\IMUTRC\Sujet_06\Sujet_06_velo_60.trc         
DataRate	CameraRate	NumFrames	NumMarkers	Units	OrigDataRate	OrigDataStartFrame	OrigNumFrames
60.0	60.0	4	64	mm	60.0	235	936
Frame#	Time	pHipOrigin			pRightASI			pLeftASI			pRightCSI			pLeftCSI			pRightIschialTub			pLeftIschialTub			pSacrum			pL5SpinalProcess			pL3SpinalProcess			pT12SpinalProcess			pIJ			pT4SpinalProcess			pT8SpinalProcess			pPX			pC7SpinalProcess			pTopOfHead			pRightAuricularis			pLeftAuricularis			pBackOfHead			pRightAcromion			pLeftAcromion			pRightArmLatEpicondyle			pRightArmMedEpicondyle			pLeftArmLatEpicondyle			pLeftArmMedEpicondyle			pRightUlnarStyloid			pRightRadialStyloid			pRightOlecranon			pLeftUlnarStyloid			pLeftRadialStyloid			pLeftOlecranon			pRightTopOfHand			pRightPinky			pRightBallHand			pLeftTopOfHand			pLeftPinky			pLeftBallHand			pRightGreaterTrochanter			pRightKneeLatEpicondyle			pRightKneeMedEpicondyle			pRightPatella			pLeftGreaterTrochanter			pLeftKneeLatEpicondyle			pLeftKneeMedEpicondyle			pLeftPatella			pRightTibialTub			pRightLatMalleolus			pRightMedMalleolus			pLeftTibialTub			pLeftLatMalleolus			pLeftMedMalleolus			pRightHeelFoot			pRightFirstMetatarsal			pRightFifthMetatarsal			pRightPivotFoot			pRightHeelCenter			pRightToe			pLeftHeelFoot			pLeftFirstMetatarsal			pLeftFifthMetatarsal			pLeftPivotFoot			pLeftHeelCenter			pLeftToe			
		X1	Y1	Z1	X2	Y2	Z2	X3	Y3	Z3	X4	Y4	Z4	X5	Y5	Z5	X6	Y6	Z6	X7	Y7	Z7	X8	Y8	Z8	X9	Y9	Z9	X10	Y10	Z10	X11	Y11	Z11	X12	Y12	Z12	X13	Y13	Z13	X14	Y14	Z14	X15	Y15	Z15	X16	Y16	Z16	X17	Y17	Z17	X18	Y18	Z18	X19	Y19	Z19	X20	Y20	Z20	X21	Y21	Z21	X22	Y22	Z22	X23	Y23	Z23	X24	Y24	Z24	X25	Y25	Z25	X26	Y26	Z26	X27	Y27	Z27	X28	Y28	Z28	X29	Y29	Z29	X30	Y30	Z30	X31	Y31	Z31	X32	Y32	Z32	X33	Y33	Z33	X34	Y34	Z34	X35	Y35	Z35	X36	Y36	Z36	X37	Y37	Z37	X38	Y38	Z38	X39	Y39	Z39	X40	Y40	Z40	X41	Y41	Z41	X42	Y42	Z42	X43	Y43	Z43	X44	Y44	Z44	X45	Y45	Z45	X46	Y46	Z46	X47	Y47	Z47	X48	Y48	Z48	X49	Y49	Z49	X50	Y50	Z50	X51	Y51	Z51	X52	Y52	Z52	X53	Y53	Z53	X54	Y54	Z54	X55	Y55	Z55	X56	Y56	Z56	X57	Y57	Z57	X58	Y58	Z58	X59	Y59	Z59	X60	Y60	Z60	X61	Y61	Z61	X62	Y62	Z62	X63	Y63	Z63	X64	Y64	Z64	
235	3.9	0.0	1249.97291	7.653876616262013E-14	40.21565000000001	1328.87778	127.80945000000008	79.90291999999998	1339.32798	-99.04204999999993	6.810240000000014	1389.40674	106.38067000000008	40.274359999999994	1398.21308	-84.89318999999992	-57.71092999999999	1200.18769	36.98666000000008	-40.97887000000001	1204.59087	-58.65026999999992	-56.83029	1270.69718	-8.982469999999914	-24.36423	1360.93288	-0.46966999999991366	22.30941	1470.42513	9.628270000000088	67.16307	1569.70202	17.90624000000009	310.62922	1654.71262	70.09852000000005	181.52817	1730.91688	37.691170000000085	122.29081	1662.52091	27.18226000000009	233.48562	1557.90151	56.71288000000006	224.50314	1777.17955	45.96913000000008	503.31209	1812.22882	46.14526000000005	405.50293	1797.14061	125.75464000000007	397.04884	1786.10332	-18.31719999999994	389.76892	1847.16066	50.137470000000064	197.43830000000003	1740.54515	226.9102100000001	258.8479	1737.84454	-131.44940999999992	357.30286	1491.67778	217.81032000000002	347.32233	1486.92235	155.75493000000006	434.74	1503.71312	-125.93075999999998	403.09586	1477.47021	-78.08293999999995	513.52745	1304.74839	267.18457	547.28512	1328.40811	235.36430000000001	333.29088	1480.17082	204.36596000000006	630.41703	1353.65297	-156.98781	645.03557	1367.74312	-109.08129	409.78869	1486.51139	-127.45719999999997	697.99107	1321.53916	233.25078	629.00802	1291.30403	264.89492	561.02302	1298.40782	252.27249000000003	798.67697	1352.83104	-84.83448000000001	737.85447	1339.32798	-137.67256	668.46045	1343.26148	-135.97	-2.818029999999982	1217.74168	146.77245000000008	283.68179	968.63947	153.40657000000002	299.94418	976.6826	81.84032000000002	316.3827	1005.27388	124.34562000000001	48.493619999999986	1239.464	-142.83894999999993	344.26946	1006.50676	-94.22790999999998	335.52182	1001.28167	-21.135229999999982	362.11699	1037.97478	-50.07875999999998	305.63895	923.31614	121.05792000000001	3.170280000000015	704.39035	121.64501000000004	11.213420000000006	701.16136	63.17086000000004	387.06831	974.62779	-54.305809999999994	310.33567	614.38948	-115.18702	306.81313	610.04502	-56.36062	-80.13775999999999	679.43903	79.96163000000006	20.95911000000001	553.6844	85.83253000000003	6.634110000000019	568.12681	159.45359000000002	26.888710000000014	544.23225	127.39849000000002	-56.24319999999999	652.31548	89.94216000000004	72.32946000000001	486.52132	147.59438000000003	254.03376	539.18328	-89.41378	405.15068	505.71916	-43.38594000000002	409.67127	506.13012	-119.59019000000004	428.45814	501.19857	-79.25712000000003	290.96171	533.07754	-87.24155000000002	502.78371	484.81876	-74.91266000000003	
236	3.917	0.0	1249.97291	7.653876616262013E-14	39.68727000000001	1329.0539	127.86816000000009	80.19646999999999	1339.21056	-98.86591999999993	6.340570000000013	1389.52415	106.20455000000008	40.50919999999999	1398.09567	-84.95189999999991	-57.82834999999999	1200.2464	36.869240000000076	-40.74403000000001	1204.53216	-58.70897999999992	-56.83029	1270.63847	-9.217309999999914	-24.48164	1360.93288	-0.6457999999999137	22.13329	1470.42513	9.510850000000087	66.92824	1569.76073	17.90624000000009	310.15954	1654.94746	70.86174000000005	181.11721	1731.093	38.160840000000086	121.93855	1662.63833	27.41709000000009	233.13336	1558.07764	57.18255000000006	224.03347	1777.35568	46.61493000000008	502.84242	1812.34623	47.37815000000005	404.91584	1797.14061	126.75269000000007	396.63787	1786.39686	-17.26043999999994	389.29925	1847.33679	51.252940000000066	196.61638000000002	1740.25161	227.4385900000001	258.9066	1738.19679	-130.8036099999999	356.71577	1491.61907	217.92774000000003	346.79395	1486.92235	155.87234000000007	434.85742	1504.2415	-125.28495999999997	403.09586	1477.82246	-77.67197999999996	513.1752	1304.8071	267.06715	546.87416	1328.52552	235.30559000000002	332.7625	1480.11211	204.42467000000005	630.1822	1353.77039	-156.8704	644.85944	1367.74312	-108.96387	409.84739	1486.98106	-126.92881999999997	697.58011	1321.59786	233.13336	628.65577	1291.36274	264.7775	560.61206	1298.46653	252.21378000000004	798.44214	1352.5375	-84.83448000000001	737.61963	1339.26927	-137.67256	668.22562	1343.26148	-135.91129	-1.643849999999982	1218.32877	146.7137400000001	293.25136	979.2658	151.82142000000002	308.75053	987.71989	80.19647000000002	324.54325	1016.95696	122.52564000000001	47.43685999999999	1237.5266	-143.1324899999999	332.70379	991.35985	-96.63497999999998	324.48454	986.78055	-23.42487999999998	352.3713	1022.18206	-52.83807999999998	313.85821	934.1773	119.17923000000002	8.277970000000014	719.65469	122.29081000000004	15.675300000000007	716.4844	63.699240000000046	376.5594	960.42021	-56.830289999999984	305.16928	598.8316	-116.12636	301.999	594.60456	-57.24126	-75.73458999999998	695.81884	81.25323000000006	23.77714000000001	568.7139	86.88929000000003	10.097940000000019	583.62598	160.51035000000002	29.824160000000013	559.37917	128.39654000000002	-52.19227999999998	668.40175	91.17505000000004	74.67782000000001	501.13986	148.47501000000003	248.74995	523.91894	-89.70732	399.69074	490.16128	-43.32723000000002	404.27004	489.86773	-119.59019000000002	422.99821	485.22973	-79.13971000000002	285.61919	517.63708	-87.47638	497.20636	468.61508	-74.61911000000003	
237	3.933	0.0	1249.97291	7.653876616262013E-14	39.21760000000001	1329.23003	127.86816000000009	80.49000999999998	1339.15185	-98.68979999999993	5.929610000000014	1389.70028	106.08713000000009	40.744029999999995	1398.03696	-85.01059999999991	-57.94575999999999	1200.2464	36.693110000000075	-40.50920000000001	1204.41474	-58.82639999999992	-56.83029	1270.63847	-9.452149999999914	-24.54035	1360.93288	-0.8806299999999136	22.01587	1470.48384	9.393440000000087	66.6934	1569.81943	17.90624000000009	309.74858	1655.06487	71.50754000000006	180.76495	1731.15171	38.51309000000008	121.64501	1662.69704	27.593220000000088	232.83982	1558.19506	57.593510000000066	223.62251	1777.4731	47.08460000000008	502.49017	1812.40494	48.49362000000005	404.38746	1797.14061	127.69203000000007	396.40304	1786.6317	-16.43850999999994	388.947	1847.4542	52.19228000000006	195.85316000000003	1739.89935	227.9082600000001	258.96531	1738.49034	-130.21651999999992	356.24609	1491.44295	217.92774000000003	346.32428	1486.86364	155.87234000000007	435.09226	1504.65247	-124.81528999999998	403.15457	1478.0573	-77.43714999999996	512.94036	1304.74839	266.83232	546.58061	1328.52552	235.07076000000004	332.29283	1479.93598	204.42467000000005	630.06478	1353.82909	-156.98781	644.80073	1367.74312	-109.02258	409.96481	1487.45073	-126.51784999999997	697.28656	1321.71528	232.89853	628.36222	1291.42145	264.54267	560.31851	1298.52523	251.97895000000003	798.38343	1352.24395	-85.01060000000001	737.50222	1339.09314	-137.78998	668.1082	1343.26148	-136.02871	-0.528379999999982	1218.97457	146.6550300000001	302.6448	990.4205	149.82532000000003	317.32204	999.28556	78.08294000000001	332.41025	1029.10972	120.23599000000002	46.203969999999984	1235.70663	-143.42603999999992	320.3162	976.6826	-99.33559999999999	312.74274	972.7491	-26.06678999999998	341.9211	1006.68289	-55.83223999999998	322.13618	945.56684	116.83087000000002	14.559830000000014	734.09709	122.93661000000004	21.135230000000007	730.98552	64.28633000000005	365.22857	946.50619	-59.648319999999984	298.47646	583.74339	-117.35925	295.71714	579.69248	-58.41544	-70.09851999999998	710.96576	82.66224000000005	28.41515000000001	583.0976	87.76993000000004	15.499170000000019	598.30322	161.50841000000003	34.75572000000001	573.82158	129.27718000000002	-46.673639999999985	683.37254	92.46664000000004	79.31583000000002	515.28872	149.17952000000002	241.64616	509.35912	-90.17699	392.35212	474.89694	-43.38594000000002	396.93142	473.78147	-119.59019000000002	415.60087	469.43701	-79.08100000000003	278.5154	502.78371	-87.82864	489.69161	452.23528	-74.38428000000003	
238	3.95	0.0	1249.97291	7.653876616262013E-14	38.68922000000001	1329.40616	127.92687000000008	80.84226999999998	1339.03443	-98.51366999999993	5.459940000000013	1389.8177	105.91100000000009	41.03757999999999	1397.91954	-85.01059999999991	-58.063179999999996	1200.2464	36.51699000000008	-40.27436000000001	1204.35603	-58.943819999999924	-56.77158	1270.57976	-9.686979999999915	-24.54035	1360.93288	-1.0567599999999135	21.89845	1470.48384	9.334730000000087	66.51728	1569.81943	17.90624000000009	309.45504	1655.18229	72.03592000000006	180.53012	1731.21042	38.80664000000009	121.41017	1662.75575	27.71064000000009	232.60498	1558.25377	57.945760000000064	223.38767	1777.53181	47.49557000000008	502.19662	1812.40494	49.31554000000005	403.9765	1797.02319	128.39654000000004	396.1682	1786.80783	-15.734009999999937	388.65345	1847.51291	53.01421000000006	195.26607000000004	1739.60581	228.3192300000001	259.08273	1738.78388	-129.68813999999992	355.89384	1491.32553	217.86903000000004	346.03073	1486.86364	155.75493000000006	435.26838	1504.94601	-124.58045999999997	403.21328	1478.17472	-77.43714999999996	512.82295	1304.74839	266.48006	546.40448	1328.58423	234.71850000000003	331.99929	1479.87728	204.30725000000007	629.94736	1353.82909	-157.16394	644.80073	1367.74312	-109.25741	410.02352	1487.62686	-126.40043999999997	697.16915	1321.77399	232.48756	628.2448	1291.48016	264.1317	560.20109	1298.52523	251.62669000000002	798.32472	1352.06783	-85.30415000000002	737.3848	1339.03443	-138.08352	667.99078	1343.20277	-136.26354	0.645800000000018	1219.62036	146.4789100000001	311.68598	1001.81005	147.53567000000004	325.42388	1011.14477	75.67588000000002	339.74887	1041.49732	117.71151000000002	44.971079999999986	1234.06277	-143.6608799999999	307.57635	963.00341	-102.15362999999999	300.58998	959.48087	-28.767399999999974	330.94252	992.06436	-58.94381999999998	330.17931	957.24993	114.24768000000002	21.487490000000015	747.48274	123.64111000000004	27.475800000000007	744.42988	64.93213000000004	353.48677	933.29667	-62.70118999999998	290.31591	569.65324	-118.70956000000001	288.02626	565.77845	-59.82445	-63.58182999999999	724.41011	84.01255000000006	34.99055000000001	596.54195	88.59185000000004	22.60296000000002	611.865	162.38904000000002	41.624670000000016	587.32464	130.09910000000002	-40.03951999999999	696.81689	93.64082000000005	86.24349000000001	528.79179	149.70790000000002	233.01594	495.85605	-90.70538	383.36964	460.45454	-43.562060000000024	387.89024	458.45843	-119.76632000000001	406.55969	454.3488	-79.25712000000003	269.76777	488.9871	-88.29831	480.4743	436.50127	-74.38428000000003	
